<svg width="407" height="254" viewBox="0 0 407 254" fill="none" xmlns="http://www.w3.org/2000/svg">
<path d="M242.5 0H279.375L275.625 6.875L265.625 24.375L257.5 38.125L284.375 38.75L296.875 40L310 43.125L319.375 46.875L329.375 51.875L336.875 56.875L343.75 62.5L348.125 66.25L352.5 71.25L357.5 77.5L363.125 86.25L368.125 96.25L371.875 106.25L375 121.875L375.625 129.375V136.875L374.375 148.125L371.25 161.875L365 176.25L359.375 185.625L353.75 193.125L346.875 200.625L340.625 206.25L330.625 213.125L318.75 219.375L305.625 223.75L294.375 226.25L282.5 226.875L278.75 221.25L268.75 203.75L264.375 196.25V195L286.875 194.375L297.5 192.5L305 190L313.75 185.625L320.625 180.625L328.125 173.75L333.75 165.625L338.75 155.625L341.875 145.625L342.5 143.125V123.125L340 113.125L335.625 103.125L330.625 95.625L323.75 88.125L318.125 83.125L310 78.125L301.25 74.375L294.375 72.5L283.75 71.25L116.25 71.875L107.5 73.75L98.125 77.5L90.625 81.875L84.375 86.875L77.5 93.75L71.25 103.125L66.25 115L64.375 124.375L63.75 134.375L65 145L67.5 154.375L72.5 164.375L77.5 171.875L83.125 178.125L89.375 183.125L97.5 188.125L106.875 191.875L115 193.75L120 194.375L234.375 195L237.5 200L246.25 215L256.25 232.5L265 247.5L268.125 253.75H231.875L228.125 248.125L218.125 230.625L216.25 227.5L122.5 226.875L110 225.625L96.875 222.5L86.875 218.75L75 212.5L65 205L56.875 197.5L50 189.375L44.375 180.625L39.375 170.625L36.25 163.75L32.5 148.125L31.25 137.5V128.75L32.5 117.5L36.25 102.5L41.25 91.25L46.25 81.875L52.5 73.75L58.125 67.5L65 60.625L74.375 53.75L85.625 47.5L96.875 43.125L110 40L114.375 39.375L128.75 38.75L163.75 38.125L172.5 23.125L180.625 8.75H217.5L213.125 17.5L205 31.25L200.625 38.75H220.625L221.875 35.625L230.625 20L240.625 3.125L242.5 0Z" fill="#3C1596"/>
<path d="M242.5 108.125H253.125L261.25 111.25L267.5 116.875L271.25 123.125L273.125 131.25L272.5 138.125L270 145L265.625 150.625L261.25 154.375L253.75 157.5L250 158.125H245L236.875 155.625L231.875 152.5L227.5 148.125L223.75 141.25L222.5 135L223.125 126.875L228.125 116.875L233.75 111.875L238.75 109.375L242.5 108.125Z" fill="#FF0000"/>
<path d="M153.75 108.125H164.375L171.25 110.625L176.875 115L181.25 120.625L183.75 126.875L184.375 130V135.625L181.875 143.75L178.125 149.375L172.5 154.375L165 157.5L161.25 158.125H156.25L148.125 155.625L142.5 151.875L137.5 146.25L135 140.625L134.375 138.125V127.5L136.875 120.625L141.25 115L146.875 110.625L153.75 108.125Z" fill="#FF0000"/>
<path d="M28.75 101.25L36.875 101.875L33.125 117.5L31.875 128.75V137.5L33.125 148.125L36.25 161.25L35.625 164.375H27.5L20 162.5L13.125 158.75L6.25 151.875L2.5 145.625L0.625 139.375L0 135V130L1.875 122.5L5.625 115L11.25 108.75L18.125 104.375L25 101.875L28.75 101.25Z" fill="#B1ACFE"/>
<path d="M370 101.875H381.875L388.75 104.375L395 108.125L400 113.125L403.75 119.375L405.625 124.375L406.875 130.625V135.625L404.375 145.625L400 152.5L393.75 158.75L385 163.125L379.375 164.375H371.25L370 163.125L373.125 151.875L374.375 144.375L375 136.875V129.375L373.75 117.5L370.625 104.375L370 101.875Z" fill="#B1ACFE"/>
</svg>
